<?xml version="1.0" standalone="no"?>
<!DOCTYPE svg PUBLIC "-//W3C//DTD SVG 1.1//EN" "http://www.w3.org/Graphics/SVG/1.1/DTD/svg11.dtd" >
<svg>
<metadata>
Created by FontForge 20090914 at Sun Feb 10 11:06:51 2013
 By www-data
(C) 2010 dot colon.
</metadata>
<defs>
<font id="Vegur-Regular" horiz-adv-x="522" >
  <font-face 
    font-family="Vegur"
    font-weight="400"
    font-stretch="normal"
    units-per-em="1000"
    panose-1="0 0 0 0 0 0 0 0 0 0"
    ascent="770"
    descent="-230"
    x-height="484"
    cap-height="678"
    bbox="-51 -250 932 855"
    underline-thickness="50"
    underline-position="-50"
    unicode-range="U+0020-U+201D"
  />
<missing-glyph horiz-adv-x="285" 
 />
    <glyph glyph-name=".notdef" horiz-adv-x="285" 
 />
    <glyph glyph-name="space" unicode=" " horiz-adv-x="226" 
 />
    <glyph glyph-name="exclam" unicode="!" horiz-adv-x="266" 
d="M190 47c0 -16 -5.66699 -29.5 -17 -40.5s-24.666 -16.5 -39.999 -16.5c-16 0 -29.5 5.5 -40.5 16.5s-16.5 24.5 -16.5 40.5c0 15.333 5.5 28.666 16.5 39.999s24.5 17 40.5 17c15.333 0 28.666 -5.66699 39.999 -17s17 -24.666 17 -39.999zM172 182h-78l-6 496h90z" />
    <glyph glyph-name="quotedbl" unicode="&#x22;" horiz-adv-x="324" 
d="M118 461h-60l-5 223c0 13.333 11.333 20 34 20h50zM259 461h-60l-5 223c0 13.333 11.333 20 34 20h50z" />
    <glyph glyph-name="numbersign" unicode="#" horiz-adv-x="500" 
d="M341 258h93v-46h-101l-29 -177h-54l29 177h-96l-29 -177h-54l29 177h-85v46h92l23 142h-93v46h101l29 177h54l-29 -177h96l29 177h54l-29 -177h85v-46h-92zM286 258l23 142h-95l-23 -142h95z" />
    <glyph glyph-name="dollar" unicode="$" 
d="M437 210c0 -46.667 -13.502 -85.333 -40.502 -116s-63.833 -50.334 -110.5 -59.001v-99h-62v94c-51.333 2 -98.666 13.333 -141.999 34l10 68c50 -22.667 97 -34 141 -34c36.667 0 64.667 8.5 84 25.5s29 41.167 29 72.5c0 27.333 -7.33301 49 -22 65s-43 32.667 -85 50
c-50.667 20.667 -86.834 43.5 -108.501 68.5s-32.5 56.5 -32.5 94.5c0 36.667 11.833 67.834 35.5 93.501s54.167 42.5 91.5 50.5v105h62v-99c48 -2 87.667 -12 119 -30l-9 -65c-37.333 18 -77.666 27 -120.999 27c-25.333 0 -46.166 -6.66699 -62.499 -20
s-24.5 -31.333 -24.5 -54c0 -24.667 6.66699 -44.167 20 -58.5s37 -28.5 71 -42.5c56.667 -23.333 97 -48.333 121 -75s36 -58.667 36 -96z" />
    <glyph glyph-name="percent" unicode="%" horiz-adv-x="842" 
d="M626 330c46 0 83.333 -16.667 112 -50s43 -73.333 43 -120s-14.333 -86.667 -43 -120s-66 -50 -112 -50s-83.333 16.667 -112 50s-43 73.333 -43 120s14.333 86.667 43 120s66 50 112 50zM626 52c25.333 0 44.833 9.66699 58.5 29s20.5 45.666 20.5 78.999
s-6.83301 59.666 -20.5 78.999s-33.167 29 -58.5 29s-44.833 -9.66699 -58.5 -29s-20.5 -45.666 -20.5 -78.999s6.83301 -59.666 20.5 -78.999s33.167 -29 58.5 -29zM216 668c46 0 83.333 -16.667 112 -50s43 -73.333 43 -120s-14.333 -86.667 -43 -120s-66 -50 -112 -50
s-83.333 16.667 -112 50s-43 73.333 -43 120s14.333 86.667 43 120s66 50 112 50zM216 390c25.333 0 44.833 9.66699 58.5 29s20.5 45.666 20.5 78.999s-6.83301 59.666 -20.5 78.999s-33.167 29 -58.5 29s-44.833 -9.66699 -58.5 -29s-20.5 -45.666 -20.5 -78.999
s6.83301 -59.666 20.5 -78.999s33.167 -29 58.5 -29zM619 688h64l-460 -708h-64z" />
    <glyph glyph-name="ampersand" unicode="&#x26;" horiz-adv-x="675" 
d="M643 0h-109.001l-52 63h-2c-55.333 -48.667 -124.666 -73 -207.999 -73c-61.333 0 -114.333 15.667 -159 47s-67 76 -67 134c0 45.333 13.167 84 39.5 116s68.166 65.667 125.499 101v2c-23.333 18 -43.833 40 -61.5 66s-26.5 52.333 -26.5 79
c0 45.333 15.833 82.166 47.5 110.499s69.5 42.5 113.5 42.5c46.667 0 84.334 -13.333 113.001 -40s43 -60.667 43 -102c0 -31.333 -10.333 -60.166 -31 -86.499s-51 -52.5 -91 -78.5v-2l169 -196h2c22.667 40.667 35 91.667 37 153h78
c-4 -81.333 -26.667 -152.333 -68 -213zM282.999 621c-20 0 -36.333 -7.33105 -49 -21.998s-19 -34.334 -19 -59.001c0 -36 20 -72.333 60 -109h2c49.333 31.333 74 67.666 74 108.999c0 26 -6 46 -18 60s-28.667 21 -50 21zM278.999 58.002
c28 0 56.501 5.00098 85.501 15.001s53.167 24.333 72.5 43v2l-184 220h-2c-40 -24.667 -68.833 -49.834 -86.5 -75.501s-26.5 -54.167 -26.5 -85.5c0 -35.333 13.667 -64 41 -86s60.666 -33 99.999 -33z" />
    <glyph glyph-name="quotesingle" unicode="'" horiz-adv-x="183" 
d="M118 461h-60l-5 223c0 13.333 11.333 20 34 20h50z" />
    <glyph glyph-name="parenleft" unicode="(" horiz-adv-x="304" 
d="M155 307c0 -70 9.5 -140.835 28.5 -212.502s43.833 -134.5 74.5 -188.5h-62c-78 122.667 -117 256.334 -117 401.001s39 278.334 117 401.001h62c-30.667 -54 -55.5 -116.833 -74.5 -188.5s-28.5 -142.5 -28.5 -212.5z" />
    <glyph glyph-name="parenright" unicode=")" horiz-adv-x="304" 
d="M149 307c0 70 -9.5 140.835 -28.5 212.502s-43.833 134.5 -74.5 188.5h62c78 -122.667 117 -256.334 117 -401.001s-39 -278.334 -117 -401.001h-62c30.667 54 55.5 116.833 74.5 188.5s28.5 142.5 28.5 212.5z" />
    <glyph glyph-name="asterisk" unicode="*" horiz-adv-x="478" 
d="M238 452l-73 -127l-63 46l98 109v2l-144 30l24 75l133 -60h2l-15 147h78l-15 -147h2l133 60l24 -75l-144 -30v-2l98 -109l-63 -46l-73 127h-2z" />
    <glyph glyph-name="plus" unicode="+" horiz-adv-x="592" 
d="M330 287h207v-62h-207v-225h-68v225h-207v62h207v225h68v-225z" />
    <glyph glyph-name="comma" unicode="," horiz-adv-x="228" 
d="M67 61c4.66699 18 18.333 27 41 27h64c-28 -84.667 -58.667 -164.667 -92 -240l-79 -13c24.667 78 46.667 153.333 66 226z" />
    <glyph glyph-name="hyphen" unicode="-" horiz-adv-x="371" 
d="M303 287v-62h-235v62h235z" />
    <glyph glyph-name="period" unicode="." horiz-adv-x="226" 
d="M113 104c15.333 0 28.666 -5.66699 39.999 -17s17 -24.666 17 -39.999c0 -16 -5.66699 -29.5 -17 -40.5s-24.666 -16.5 -39.999 -16.5c-16 0 -29.5 5.5 -40.5 16.5s-16.5 24.5 -16.5 40.5c0 15.333 5.5 28.666 16.5 39.999s24.5 17 40.5 17z" />
    <glyph glyph-name="slash" unicode="/" horiz-adv-x="377" 
d="M308 700h74l-313 -737h-74z" />
    <glyph glyph-name="zero" unicode="0" 
d="M494 327c0 -100.667 -19.833 -182 -59.5 -244s-97.5 -93 -173.5 -93s-133.833 31 -173.5 93s-59.5 143.333 -59.5 244s19.833 182 59.5 244s97.5 93 173.5 93s133.833 -31 173.5 -93s59.5 -143.333 59.5 -244zM120 327c0 -85.333 11.667 -151.5 35 -198.5
s58.666 -70.5 105.999 -70.5s82.666 23.5 105.999 70.5s35 113.167 35 198.5s-11.667 151.5 -35 198.5s-58.666 70.5 -105.999 70.5s-82.666 -23.5 -105.999 -70.5s-35 -113.167 -35 -198.5z" />
    <glyph glyph-name="one" unicode="1" 
d="M286 658h42v-658h-84v563l-133 -52l-9 65z" />
    <glyph glyph-name="two" unicode="2" 
d="M461 64v-63.998h-420v67l75 83c103.333 114 168.333 189.5 195 226.5s40 72.5 40 106.5c0 37.333 -11.5 66.166 -34.5 86.499s-56.5 30.5 -100.5 30.5c-41.333 0 -85 -12 -131 -36l-9 67c48 24.667 100 37 156 37c66.667 0 118.5 -15.5 155.5 -46.5
s55.5 -72.167 55.5 -123.5c0 -45.333 -14.667 -89.833 -44 -133.5s-92 -118.834 -188 -225.501l-65 -73v-2h315z" />
    <glyph glyph-name="three" unicode="3" 
d="M202 -10c-59.333 0 -111.333 9.99902 -156 29.999l9 67c52.667 -19.333 105.667 -29 159 -29c44 0 80.5 10.667 109.5 32s43.5 50.666 43.5 87.999c0 78 -59 119.667 -177 125v64c45.333 3.33301 83.333 16.833 114 40.5s46 54.5 46 92.5c0 32 -12.667 56.667 -38 74
s-56.666 26 -93.999 26c-39.333 0 -81.333 -9.66699 -126 -29l-9 67c50 20 103 30 159 30c59.333 0 107.5 -14.167 144.5 -42.5s55.5 -65.5 55.5 -111.5c0 -75.333 -47.333 -129.333 -142 -162v-2c47.333 -11.333 85.666 -30.666 114.999 -57.999s44 -61.666 44 -102.999
c0 -63.333 -24 -112.333 -72 -147s-109.667 -52 -185 -52z" />
    <glyph glyph-name="four" unicode="4" 
d="M416 224h90v-64h-90v-160h-84v160h-308v66l303 432h89v-434zM115 224h216.999v166c0 52.667 2 109.667 6 171h-2c-25.333 -42.667 -55.666 -90.667 -90.999 -144l-130 -191v-2z" />
    <glyph glyph-name="five" unicode="5" 
d="M164 384c29.333 14 60.001 20.999 92.001 20.999c60.667 0 110.167 -17.667 148.5 -53s57.5 -81 57.5 -137c0 -67.333 -23.5 -121.666 -70.5 -162.999s-106.833 -62 -179.5 -62c-58.667 0 -110.667 11 -156 33l9 69c54 -22.667 106.333 -34 157 -34
c44 0 79.667 13.167 107 39.5s41 61.5 41 105.5c0 40.667 -12.167 73.167 -36.5 97.5s-55.833 36.5 -94.5 36.5c-36.667 0 -67.334 -8.66699 -92.001 -26l-67 3l10 344h333v-64h-255l-7 -210h3z" />
    <glyph glyph-name="six" unicode="6" 
d="M259 -10c-64.667 0 -116.832 25.8359 -156.499 77.5029s-59.5 120.167 -59.5 205.5c0 60 9.83301 115.167 29.5 165.5s45.667 91.666 78 123.999s69 57.666 110 75.999s83.5 28.166 127.5 29.499l9 -65c-74 -8 -134.667 -35.667 -182 -83s-74.333 -110 -81 -188h2
c10 20.667 29.333 39 58 55s58.667 24 90 24c57.333 0 104.5 -18.5 141.5 -55.5s55.5 -83.167 55.5 -138.5c0 -67.333 -21.333 -122 -64 -164s-95.334 -63 -158.001 -63zM257.002 343.003c-36 0 -65.5 -10.667 -88.5 -32s-34.5 -50 -34.5 -86
c0 -49.333 12.667 -89.5 38 -120.5s56.666 -46.5 93.999 -46.5c36.667 0 66.334 13 89.001 39s34 61.333 34 106c0 40.667 -12 74.167 -36 100.5s-56 39.5 -96 39.5z" />
    <glyph glyph-name="seven" unicode="7" 
d="M473 658v-63l-270 -595h-88l272 592v2h-323v64h409z" />
    <glyph glyph-name="eight" unicode="8" 
d="M336 349c47.333 -22 82.334 -46.5 105.001 -73.5s34 -58.833 34 -95.5c0 -56.667 -21 -102.5 -63 -137.5s-92.667 -52.5 -152 -52.5c-60.667 0 -111.5 15.5 -152.5 46.5s-61.5 74.5 -61.5 130.5c0 40 12.833 73.5 38.5 100.5s61.5 50.833 107.5 71.5v2
c-80 42 -120 95.333 -120 160c0 46.667 19 86.167 57 118.5s84.667 48.5 140 48.5s100.666 -14.833 135.999 -44.5s53 -68.167 53 -115.5c0 -64 -40.667 -116.333 -122 -157v-2zM162.001 505c0 -26.667 8.33203 -49.167 24.999 -67.5s43.334 -36.833 80.001 -55.5
c67.333 25.333 101 64 101 116c0 31.333 -9.16699 56.5 -27.5 75.5s-42.5 28.5 -72.5 28.5c-31.333 0 -56.833 -9.16699 -76.5 -27.5s-29.5 -41.5 -29.5 -69.5zM262 56c36 0 65.501 10.501 88.501 31.501s34.5 49.5 34.5 85.5c0 61.333 -41.667 107.666 -125 138.999
c-82.667 -31.333 -124 -76 -124 -134c0 -36.667 11.667 -66.167 35 -88.5s53.666 -33.5 90.999 -33.5z" />
    <glyph glyph-name="nine" unicode="9" 
d="M263 668c64.667 0 116.831 -25.8359 156.498 -77.5029s59.5 -120.167 59.5 -205.5c0 -60 -9.83301 -115.167 -29.5 -165.5s-45.667 -91.666 -78 -123.999s-69 -57.666 -110 -75.999s-83.5 -28.166 -127.5 -29.499l-9 65c74 8 134.5 35.667 181.5 83s74.167 110 81.5 188
h-2c-10.667 -20.667 -30.167 -39 -58.5 -55s-58.166 -24 -89.499 -24c-57.333 0 -104.5 18.333 -141.5 55s-55.5 83 -55.5 139c0 67.333 21.333 122 64 164s95.334 63 158.001 63zM264.997 314.997c36 0 65.5 10.667 88.5 32s34.5 50 34.5 86
c0 49.333 -12.667 89.5 -38 120.5s-56.666 46.5 -93.999 46.5c-36.667 0 -66.334 -13 -89.001 -39s-34 -61.333 -34 -106c0 -40.667 12 -74.167 36 -100.5s56 -39.5 96 -39.5z" />
    <glyph glyph-name="colon" unicode=":" horiz-adv-x="226" 
d="M113 104c15.333 0 28.666 -5.66699 39.999 -17s17 -24.666 17 -39.999c0 -16 -5.66699 -29.5 -17 -40.5s-24.666 -16.5 -39.999 -16.5c-16 0 -29.5 5.5 -40.5 16.5s-16.5 24.5 -16.5 40.5c0 15.333 5.5 28.666 16.5 39.999s24.5 17 40.5 17zM113 494
c15.333 0 28.666 -5.66699 39.999 -17s17 -24.666 17 -39.999c0 -16 -5.66699 -29.5 -17 -40.5s-24.666 -16.5 -39.999 -16.5c-16 0 -29.5 5.5 -40.5 16.5s-16.5 24.5 -16.5 40.5c0 15.333 5.5 28.666 16.5 39.999s24.5 17 40.5 17z" />
    <glyph glyph-name="semicolon" unicode=";" horiz-adv-x="239" 
d="M67 61c4.66699 18 18.333 27 41 27h64c-28 -84.667 -58.667 -164.667 -92 -240l-79 -13c24.667 78 46.667 153.333 66 226zM125.999 494c15.333 0 28.666 -5.66699 39.999 -17s17 -24.666 17 -39.999c0 -16 -5.66699 -29.5 -17 -40.5s-24.666 -16.5 -39.999 -16.5
c-16 0 -29.5 5.5 -40.5 16.5s-16.5 24.5 -16.5 40.5c0 15.333 5.5 28.666 16.5 39.999s24.5 17 40.5 17z" />
    <glyph glyph-name="less" unicode="&#x3c;" horiz-adv-x="474" 
d="M109 263l302 -161v-78l-370 201v78l370 201v-78l-302 -160v-3z" />
    <glyph glyph-name="equal" unicode="=" horiz-adv-x="650" 
d="M571 115h-492v62h492v-62zM571 335h-492v62h492v-62z" />
    <glyph glyph-name="greater" unicode="&#x3e;" horiz-adv-x="474" 
d="M365 265l-302 161v78l370 -201v-78l-370 -201v78l302 160v3z" />
    <glyph glyph-name="question" unicode="?" horiz-adv-x="406" 
d="M217 47c0 15.333 -5.66699 28.666 -17 39.999s-24.666 17 -39.999 17c-16 0 -29.5 -5.66699 -40.5 -17s-16.5 -24.666 -16.5 -39.999c0 -16 5.5 -29.5 16.5 -40.5s24.5 -16.5 40.5 -16.5c15.333 0 28.666 5.5 39.999 16.5s17 24.5 17 40.5zM360 539
c0 -31.333 -7.33301 -59.667 -22 -85s-37 -55 -67 -89c-27.333 -30.667 -45.666 -56.334 -54.999 -77.001s-14 -44.667 -14 -72v-34h-84v25c0 42 5.83301 76.333 17.5 103s33.167 57.334 64.5 92.001c45.333 50 68 92.667 68 128c0 28 -9.33301 50 -28 66s-44 24 -76 24
c-40 0 -79.667 -11 -119 -33l-9 67c43.333 22.667 90.666 34 141.999 34c55.333 0 99.5 -13.833 132.5 -41.5s49.5 -63.5 49.5 -107.5z" />
    <glyph glyph-name="at" unicode="@" horiz-adv-x="883" 
d="M503 590c84.667 0 155.001 -27.498 211.001 -82.498s84 -119.167 84 -192.5c0 -76.667 -18.833 -140 -56.5 -190s-85.5 -75 -143.5 -75c-46 0 -77.667 20 -95 60h-2c-35.333 -44.667 -78.666 -67 -129.999 -67c-31.333 0 -59.5 13.167 -84.5 39.5
s-37.5 58.833 -37.5 97.5c0 79.333 21.667 141 65 185s103 66 179 66c46 0 83.667 -7.66699 113 -23l-36 -236c-5.33301 -25.333 -2.83301 -44.333 7.5 -57s24.833 -19 43.5 -19c31.333 0 58.666 18.333 81.999 55s35 84.667 35 144c0 73.333 -23.667 133.166 -71 179.499
s-109.666 69.5 -186.999 69.5c-62 0 -119.833 -14 -173.5 -42s-97.334 -68.833 -131.001 -122.5s-50.5 -114.5 -50.5 -182.5c0 -84.667 25.5 -153.334 76.5 -206.001s112.5 -79 184.5 -79c77.333 0 145.666 17.667 204.999 53l6 -46c-64 -35.333 -138 -53 -222 -53
c-88 0 -161.667 29.5 -221 88.5s-89 134.167 -89 225.5c0 120.667 43 219.167 129 295.5s189 114.5 309 114.5zM512.001 236.002l18 131c-24.667 5.33301 -41.334 8 -50.001 8c-47.333 0 -85 -15.833 -113 -47.5s-42 -77.5 -42 -137.5c0 -27.333 6.83301 -49.333 20.5 -66
s29.834 -25 48.501 -25c30 0 55.5 11.667 76.5 35s34.833 57.333 41.5 102z" />
    <glyph glyph-name="A" unicode="A" horiz-adv-x="603" 
d="M492 0l-74 223h-237l-75 -223h-82l236 678h85l236 -678h-89zM200 287h198.999l-4 12c-45.333 135.333 -76.666 234.333 -93.999 297h-3c-20.667 -72.667 -52 -171.667 -94 -297z" />
    <glyph glyph-name="B" unicode="B" horiz-adv-x="545" 
d="M359 369c90 -26 134.998 -79.333 134.998 -160c0 -66 -24.167 -118.167 -72.5 -156.5s-114.166 -57.5 -197.499 -57.5c-54 0 -103.333 3.66699 -148 11v664c58.667 8.66699 114.667 13 168 13c74 0 131.167 -13.667 171.5 -41s60.5 -66 60.5 -116
c0 -39.333 -11.167 -72 -33.5 -98s-50.166 -45 -83.499 -57v-2zM159.998 382h87c38.667 0 71.167 11.167 97.5 33.5s39.5 51.5 39.5 87.5c0 36.667 -12.5 64.5 -37.5 83.5s-61.167 28.5 -108.5 28.5c-25.333 0 -51.333 -2 -78 -6v-227zM240.998 320h-81.002v-252
c22.667 -3.33301 49.334 -5 80.001 -5c48.667 0 87.834 11.5 117.501 34.5s44.5 55.5 44.5 97.5c0 39.333 -13.667 70 -41 92s-67.333 33 -120 33z" />
    <glyph glyph-name="C" unicode="C" horiz-adv-x="602" 
d="M38 330c0 108.667 34.168 195.499 102.501 260.499s153.166 97.5 254.499 97.5c76 0 135.333 -10.667 178 -32l-9 -69c-52.667 22 -107.667 33 -165 33c-77.333 0 -141.5 -25.5 -192.5 -76.5s-76.5 -119.833 -76.5 -206.5c0 -89.333 23 -158.166 69 -206.499
s108.333 -72.5 187 -72.5c61.333 0 118 11.333 170 34l9 -69c-51.333 -22 -114 -33 -188 -33c-100 0 -181.5 30 -244.5 90s-94.5 143.333 -94.5 250z" />
    <glyph glyph-name="D" unicode="D" horiz-adv-x="687" 
d="M76 669c54 9.33301 112.999 13.9971 176.999 13.9971c126 0 223.5 -27.167 292.5 -81.5s103.5 -134.833 103.5 -241.5c0 -59.333 -11 -112.666 -33 -159.999s-51.833 -85.666 -89.5 -114.999s-80 -51.666 -127 -66.999s-96.5 -23 -148.5 -23
c-65.333 0 -123.666 3.66699 -174.999 11v663zM159.999 608.997v-542c31.333 -2.66699 65 -4 101 -4c85.333 0 156 24.667 212 74s84 120.333 84 213c0 82.667 -25.5 147.5 -76.5 194.5s-123.833 70.5 -218.5 70.5c-43.333 0 -77.333 -2 -102 -6z" />
    <glyph glyph-name="E" unicode="E" horiz-adv-x="491" 
d="M160 68h286v-68h-370v678h361v-68h-277v-226h243v-68h-243v-248z" />
    <glyph glyph-name="F" unicode="F" horiz-adv-x="466" 
d="M160 0h-84v678h361v-68h-277v-236h243v-68h-243v-306z" />
    <glyph glyph-name="G" unicode="G" horiz-adv-x="653" 
d="M396 620c-77.333 0 -141.001 -25 -191.001 -75s-75 -119.333 -75 -208c0 -92.667 22.833 -161.5 68.5 -206.5s108.834 -67.5 189.501 -67.5c43.333 0 82.666 5.33301 117.999 16v197h-136v68h220v-314c-24.667 -10.667 -58.167 -19.167 -100.5 -25.5
s-79.833 -9.5 -112.5 -9.5c-102 0 -184 29.333 -246 88s-93 141 -93 247c0 107.333 33.833 193.833 101.5 259.5s151.834 98.5 252.501 98.5c76 0 135.333 -10.667 178 -32l-9 -69c-52.667 22 -107.667 33 -165 33z" />
    <glyph glyph-name="H" unicode="H" horiz-adv-x="683" 
d="M523 678h84v-678h-84v315h-363v-315h-84v678h84v-295h363v295z" />
    <glyph glyph-name="I" unicode="I" horiz-adv-x="236" 
d="M160 0h-84v678h84v-678z" />
    <glyph glyph-name="J" unicode="J" horiz-adv-x="388" 
d="M317 235c0 -163.333 -72.001 -245 -216.001 -245c-34 0 -66.667 4.66699 -98 14l9 68c30 -9.33301 59.667 -14 89 -14c46.667 0 80.334 13.167 101.001 39.5s31 69.5 31 129.5v451h84v-443z" />
    <glyph glyph-name="K" unicode="K" horiz-adv-x="552" 
d="M550 678l-283 -313l303 -365h-115l-240 306h-3l-52 -57v-249h-84v678h84v-329h4l282 329h104z" />
    <glyph glyph-name="L" unicode="L" horiz-adv-x="487" 
d="M160 64h309v-64h-393v678h84v-614z" />
    <glyph glyph-name="M" unicode="M" horiz-adv-x="819" 
d="M730 678l24 -678.001h-84l-14 392c-2 56 -1.33301 115 2 177h-3c-14 -54 -33.667 -113 -59 -177l-151 -372h-81l-149 372c-24 59.333 -43.333 117.333 -58 174h-3c4 -57.333 5 -115.333 3 -174l-14 -392h-78l24 678h104l138 -351c32 -80 57 -153.667 75 -221h3
c17.333 60.667 43.333 134.334 78 221.001l140 351h103z" />
    <glyph glyph-name="N" unicode="N" horiz-adv-x="688" 
d="M615 678v-677.999h-97l-245 380c-30 45.333 -71.333 113.666 -124 204.999h-3c3.33301 -96.667 5 -173.667 5 -231v-354h-78v678h107l245 -380c46 -71.333 84 -135 114 -191h3c-3.33301 98 -5 170.333 -5 217v354h78z" />
    <glyph glyph-name="O" unicode="O" horiz-adv-x="732" 
d="M366 688c93.333 0 171.333 -31.667 234 -95s94 -148 94 -254s-31.333 -190.667 -94 -254s-140.667 -95 -234 -95s-171.333 31.667 -234 95s-94 148 -94 254s31.333 190.667 94 254s140.667 95 234 95zM366 620c-69.333 0 -126 -24.833 -170 -74.5s-66 -118.5 -66 -206.5
s22 -156.833 66 -206.5s100.667 -74.5 170 -74.5s126 24.833 170 74.5s66 118.5 66 206.5s-22 156.833 -66 206.5s-100.667 74.5 -170 74.5z" />
    <glyph glyph-name="P" unicode="P" horiz-adv-x="509" 
d="M160 610l0.000976562 -276c23.333 -2 46.666 -3 69.999 -3c45.333 0 84 12.333 116 37s48 60 48 106c0 44 -14 78.5 -42 103.5s-65.333 37.5 -112 37.5c-30 0 -56.667 -1.66699 -80 -5zM76.001 0v669c61.333 9.33301 117 14 167 14c75.333 0 134.666 -17.333 177.999 -52
s65 -82.667 65 -144c0 -70 -25.667 -124.833 -77 -164.5s-112.666 -59.5 -183.999 -59.5c-18 0 -39 1 -63 3h-2v-266h-84z" />
    <glyph glyph-name="Q" unicode="Q" horiz-adv-x="732" 
d="M694 339c0 -80 -18.999 -148.5 -56.999 -205.5s-88.333 -97.5 -151 -121.5l38 -142l-82 -20l-35 143c-12.667 -2 -26.334 -3 -41.001 -3c-93.333 0 -171.333 31.667 -234 95s-94 148 -94 254s31.333 190.667 94 254s140.667 95 234 95s171.333 -31.667 234 -95
s94 -148 94 -254zM366.001 620c-69.333 0 -126 -24.833 -170 -74.5s-66 -118.5 -66 -206.5s22 -156.833 66 -206.5s100.667 -74.5 170 -74.5s126 24.833 170 74.5s66 118.5 66 206.5s-22 156.833 -66 206.5s-100.667 74.5 -170 74.5z" />
    <glyph glyph-name="R" unicode="R" horiz-adv-x="530" 
d="M160 357l70.001 -0.000976562c53.333 0 95 11 125 33s45 55.667 45 101c0 40.667 -13.667 71.334 -41 92.001s-65 31 -113 31c-32.667 0 -61.334 -2 -86.001 -6v-251zM247.001 292.999l-87 0.00195312v-293h-84v665c60.667 11.333 118.667 17 174 17
c76.667 0 136.167 -14.833 178.5 -44.5s63.5 -72.834 63.5 -129.501c0 -42 -13.333 -78.333 -40 -109s-58.334 -51.334 -95.001 -62.001v-2c30 -12 51.833 -28.667 65.5 -50s24.834 -52.333 33.501 -93c17.333 -80.667 34.333 -144.667 51 -192h-96
c-16 58 -30.667 120 -44 186c-6.66699 34 -19.167 60.333 -37.5 79s-45.833 28 -82.5 28z" />
    <glyph glyph-name="S" unicode="S" horiz-adv-x="495" 
d="M67 507c0 54 20.5 97.668 61.5 131.001s92.833 50 155.5 50c53.333 0 99 -8 137 -24l-9 -68c-40.667 16 -81.667 24 -123 24c-38 0 -69.333 -9.16699 -94 -27.5s-37 -43.833 -37 -76.5c0 -33.333 9.16699 -59.833 27.5 -79.5s47.833 -37.5 88.5 -53.5
c62 -24.667 106.667 -50.834 134 -78.501s41 -64.167 41 -109.5c0 -65.333 -23.333 -115.833 -70 -151.5s-105.334 -53.5 -176.001 -53.5c-59.333 0 -111.666 8.33301 -156.999 25l9 69c51.333 -17.333 102 -26 152 -26c44.667 0 81 10.333 109 31s42 50.334 42 89.001
c0 32 -9.33301 57.667 -28 77s-51 38.333 -97 57c-59.333 24 -101.833 50.667 -127.5 80s-38.5 67.666 -38.5 114.999z" />
    <glyph glyph-name="T" unicode="T" horiz-adv-x="496" 
d="M494 678v-68h-205v-610h-84v610h-203v68h492z" />
    <glyph glyph-name="U" unicode="U" horiz-adv-x="611" 
d="M544 233c0 -78 -22.167 -138 -66.5 -180s-101.166 -63 -170.499 -63c-68.667 0 -125.334 20 -170.001 60s-67 94.667 -67 164v464h84v-454c0 -54.667 13.667 -96 41 -124s65.333 -42 114 -42c104.667 0 157 55.333 157 166v454h78v-445z" />
    <glyph glyph-name="V" unicode="V" horiz-adv-x="565" 
d="M482 678h82l-236 -678h-86l-236 678h89l100 -299c37.333 -112 68 -212 92 -300h3c26 95.333 56.667 195.333 92 300z" />
    <glyph glyph-name="W" unicode="W" horiz-adv-x="890" 
d="M801 678h84.001l-204 -678h-87l-88 329c-20 71.333 -39.333 154.333 -58 249h-3c-14 -75.333 -32.667 -158 -56 -248l-89 -330h-86l-204 678h90l94 -328c29.333 -100.667 50.666 -187.667 63.999 -261h3c14.667 84 34 170.333 58 259l88 330h87l88 -329
c22 -84 41.333 -171 58 -261h3c16.667 84 38 171 64 261z" />
    <glyph glyph-name="X" unicode="X" horiz-adv-x="510" 
d="M498 678l-197 -329l211 -349h-98l-160 286h-2l-158 -286h-90l207 345l-201 333h98l149 -270h2l149 270h90z" />
    <glyph glyph-name="Y" unicode="Y" horiz-adv-x="532" 
d="M441 678h90l-219 -383v-295h-84v288l-222 390h96l167 -313h3z" />
    <glyph glyph-name="Z" unicode="Z" horiz-adv-x="547" 
d="M127 64h388v-64h-479v72l370 540v2h-341v64h430v-72l-368 -540v-2z" />
    <glyph glyph-name="bracketleft" unicode="[" horiz-adv-x="310" 
d="M272 638h-112v-663h112v-62h-180v787h180v-62z" />
    <glyph glyph-name="backslash" unicode="\" horiz-adv-x="377" 
d="M69 700l313 -737h-74l-313 737h74z" />
    <glyph glyph-name="bracketright" unicode="]" horiz-adv-x="310" 
d="M38 638v62h180v-787h-180v62h116v663h-116z" />
    <glyph glyph-name="asciicircum" unicode="^" horiz-adv-x="554" 
d="M315 674l183 -390h-76l-143 318h-2l-145 -318h-76l183 390h76z" />
    <glyph glyph-name="underscore" unicode="_" horiz-adv-x="564" 
d="M528 -111h-492v62h492v-62z" />
    <glyph glyph-name="grave" unicode="`" horiz-adv-x="284" 
d="M33 704h67c9.33301 0 17 -5 23 -15c26 -47.333 54.333 -94 85 -140l-74 -3c-35.333 48 -69 100.667 -101 158z" />
    <glyph glyph-name="a" unicode="a" horiz-adv-x="494" 
d="M246 494c56.667 0 100.334 -14.167 131.001 -42.5s46 -69.5 46 -123.5v-328h-81l-3 75h-2c-13.333 -26 -32.5 -46.667 -57.5 -62s-53.5 -23 -85.5 -23c-41.333 0 -76.833 13.833 -106.5 41.5s-44.5 65.167 -44.5 112.5c0 52 20.167 92.833 60.5 122.5
s92.166 44.5 155.499 44.5c30 0 56.667 -2 80 -6v14c0 74 -35 111 -105 111c-38.667 0 -82 -9.33301 -130 -28l-8 64c48.667 18.667 98.667 28 150 28zM339 208v41.999c-26.667 4 -49 6 -67 6c-92.667 0 -139 -35.333 -139 -106c0 -29.333 7.83301 -52.666 23.5 -69.999
s36.5 -26 62.5 -26c36 0 65 13.833 87 41.5s33 65.167 33 112.5z" />
    <glyph glyph-name="b" unicode="b" horiz-adv-x="577" 
d="M162 75l-2 0.000976562l-3 -75h-81v720h84v-311h2c40.667 56.667 94.667 85 162 85c66 0 117.833 -22 155.5 -66s56.5 -103 56.5 -177c0 -76.667 -20.167 -139.334 -60.5 -188.001s-92.833 -73 -157.5 -73c-69.333 0 -121.333 28.333 -156 85zM160 271.001
l-0.00195312 -58.001c0 -46 13.5 -84 40.5 -114s60.167 -45 99.5 -45c47.333 0 83.833 16.833 109.5 50.5s38.5 79.834 38.5 138.501c0 56.667 -13.167 102 -39.5 136s-63.166 51 -110.499 51c-41.333 0 -74.666 -15.5 -99.999 -46.5s-38 -68.5 -38 -112.5z" />
    <glyph glyph-name="c" unicode="c" horiz-adv-x="464" 
d="M129 244c0 -62.667 14.8311 -110.001 44.498 -142.001s69.5 -48 119.5 -48c44.667 0 87.667 9.33301 129 28l8 -64c-43.333 -18.667 -94 -28 -152 -28c-70 0 -127 21.167 -171 63.5s-66 102.166 -66 179.499c0 82.667 24.5 146.834 73.5 192.501s112.167 68.5 189.5 68.5
c48.667 0 92.334 -9.66699 131.001 -29l-8 -64c-40.667 19.333 -84 29 -130 29c-49.333 0 -89.666 -16.167 -120.999 -48.5s-47 -78.166 -47 -137.499z" />
    <glyph glyph-name="d" unicode="d" horiz-adv-x="577" 
d="M415 409l2 -0.000976562v311h84v-720h-81l-3 75h-2c-40.667 -56.667 -94.667 -85 -162 -85c-66 0 -117.833 22 -155.5 66s-56.5 103 -56.5 177c0 76.667 20.167 139.334 60.5 188.001s92.833 73 157.5 73c69.333 0 121.333 -28.333 156 -85zM417 212.999l0.00195312 58
c0 46 -13.5 84 -40.5 114s-60.167 45 -99.5 45c-47.333 0 -83.833 -17 -109.5 -51s-38.5 -80 -38.5 -138c0 -56.667 13.167 -102 39.5 -136s63.166 -51 110.499 -51c41.333 0 74.666 15.5 99.999 46.5s38 68.5 38 112.5z" />
    <glyph glyph-name="e" unicode="e" horiz-adv-x="508" 
d="M462 223h-336.998c0.666992 -54 15.5 -95.667 44.5 -125s68.167 -44 117.5 -44s93.333 9.33301 132 28l8 -64c-46 -18.667 -96.667 -28 -152 -28c-70.667 0 -127.334 20.667 -170.001 62s-64 101.666 -64 180.999c0 74.667 22.167 136.834 66.5 186.501
s100.166 74.5 167.499 74.5c60 0 106.667 -21 140 -63s50 -95.333 50 -160c0 -14 -1 -30 -3 -48zM268.002 430c-39.333 0 -70.833 -12.499 -94.5 -37.499s-38.5 -59.5 -44.5 -103.5h253c0 41.333 -10 75.166 -30 101.499s-48 39.5 -84 39.5z" />
    <glyph glyph-name="f" unicode="f" horiz-adv-x="349" 
d="M114 515c0 68.667 16.333 121.667 49 159s78.667 56 138 56c28.667 0 55 -4.66699 79 -14l-8 -62c-22 8 -45.333 12 -70 12c-33.333 0 -59 -12 -77 -36s-27 -58 -27 -102v-44h124v-64h-124v-420h-84v420h-79v64h79v31z" />
    <glyph glyph-name="g" unicode="g" horiz-adv-x="575" 
d="M499 484l0.000976562 -409c0 -95.333 -23.667 -166 -71 -212s-111 -69 -191 -69c-62 0 -114 11.667 -156 35l8 66c50 -24.667 98 -37 144 -37c55.333 0 99.5 15.167 132.5 45.5s49.5 77.833 49.5 142.5v35h-2c-40.667 -56.667 -94.667 -85 -162 -85
c-64.667 0 -115.834 21.833 -153.501 65.5s-56.5 102.167 -56.5 175.5c0 76 20 137.833 60 185.5s92 71.5 156 71.5c69.333 0 121.333 -28.333 156 -85h2l3 75h81zM275.001 430c-46 0 -81.832 -16.5 -107.499 -49.5s-38.5 -78.167 -38.5 -135.5
c0 -56.667 13 -101.667 39 -135s62.333 -50 109 -50c41.333 0 74.666 15.5 99.999 46.5s38 68.5 38 112.5v52c0 46 -13.5 84 -40.5 114s-60.167 45 -99.5 45z" />
    <glyph glyph-name="h" unicode="h" horiz-adv-x="548" 
d="M160 404h1.99902c40.667 60 93.334 90 158.001 90c104.667 0 157 -59.667 157 -179v-315h-84v289c0 48.667 -6.83301 83.667 -20.5 105s-39.167 32 -76.5 32c-38.667 0 -71 -14.5 -97 -43.5s-39 -67.833 -39 -116.5v-266h-84v720h84v-316z" />
    <glyph glyph-name="i" unicode="i" horiz-adv-x="236" 
d="M76 0v484h84v-484h-84zM118 555c-14.667 0 -27 5 -37 15s-15 22.333 -15 37s5 27 15 37s22.333 15 37 15s27 -5 37 -15s15 -22.333 15 -37s-5 -27 -15 -37s-22.333 -15 -37 -15z" />
    <glyph glyph-name="j" unicode="j" horiz-adv-x="248" 
d="M130 555c-14.667 0 -27 5 -37 15s-15 22.333 -15 37s5 27 15 37s22.333 15 37 15s27 -5 37 -15s15 -22.333 15 -37s-5 -27 -15 -37s-22.333 -15 -37 -15zM88 33v451h84v-445c0 -146 -71.667 -227.667 -215 -245l-8 66c49.333 10 84.833 27.167 106.5 51.5
s32.5 64.833 32.5 121.5z" />
    <glyph glyph-name="k" unicode="k" horiz-adv-x="486" 
d="M474 484l-199 -202l222 -282h-108l-170 222h-3l-56 -60v-162h-84v720h84v-465h3l202 229h109z" />
    <glyph glyph-name="l" unicode="l" horiz-adv-x="236" 
d="M160 0h-84v720h84v-720z" />
    <glyph glyph-name="m" unicode="m" horiz-adv-x="821" 
d="M666 299c0 84.667 -29.335 127 -88.002 127c-37.333 0 -67.166 -16.167 -89.499 -48.5s-33.5 -76.166 -33.5 -131.499v-246h-84v299c0 84.667 -29.333 127 -88 127c-37.333 0 -67.166 -16.333 -89.499 -49s-33.5 -76.334 -33.5 -131.001v-246h-84v484h81l3 -80h2
c38.667 60 87.667 90 147 90c70.667 0 116 -36.333 136 -109h3c16.667 33.333 38.5 59.833 65.5 79.5s57.167 29.5 90.5 29.5c48 0 84.333 -14.5 109 -43.5s37 -70.833 37 -125.5v-325h-84v299z" />
    <glyph glyph-name="n" unicode="n" horiz-adv-x="548" 
d="M160 404h1.99902c40.667 60 93.334 90 158.001 90c104.667 0 157 -59.667 157 -179v-315h-84v289c0 48.667 -6.83301 83.667 -20.5 105s-39.167 32 -76.5 32c-38.667 0 -71 -14.5 -97 -43.5s-39 -67.833 -39 -116.5v-266h-84v484h81z" />
    <glyph glyph-name="o" unicode="o" horiz-adv-x="548" 
d="M274 494c71.333 0 128 -23.833 170 -71.5s63 -107.834 63 -180.501s-21 -132.834 -63 -180.501s-98.667 -71.5 -170 -71.5s-128 23.833 -170 71.5s-63 107.834 -63 180.501s21 132.834 63 180.501s98.667 71.5 170 71.5zM274 54c48 0 84.167 17.833 108.5 53.5
s36.5 80.5 36.5 134.5s-12.167 98.833 -36.5 134.5s-60.5 53.5 -108.5 53.5s-84.167 -17.833 -108.5 -53.5s-36.5 -80.5 -36.5 -134.5s12.167 -98.833 36.5 -134.5s60.5 -53.5 108.5 -53.5z" />
    <glyph glyph-name="p" unicode="p" horiz-adv-x="577" 
d="M162 75l-2 0.000976562v-271h-84v680h81l3 -75h2c40.667 56.667 94.667 85 162 85c66 0 117.833 -22 155.5 -66s56.5 -103 56.5 -177c0 -76.667 -20.167 -139.334 -60.5 -188.001s-92.833 -73 -157.5 -73c-69.333 0 -121.333 28.333 -156 85zM160 271.001
l-0.00195312 -58.001c0 -46 13.5 -84 40.5 -114s60.167 -45 99.5 -45c47.333 0 83.833 16.833 109.5 50.5s38.5 79.834 38.5 138.501c0 56.667 -13.167 102 -39.5 136s-63.166 51 -110.499 51c-41.333 0 -74.666 -15.5 -99.999 -46.5s-38 -68.5 -38 -112.5z" />
    <glyph glyph-name="q" unicode="q" horiz-adv-x="577" 
d="M415 409l2 -0.000976562l3 75h81v-680h-84v271h-2c-40.667 -56.667 -94.667 -85 -162 -85c-66 0 -117.833 22 -155.5 66s-56.5 103 -56.5 177c0 76.667 20.167 139.334 60.5 188.001s92.833 73 157.5 73c69.333 0 121.333 -28.333 156 -85zM417 212.999l0.00195312 58
c0 46 -13.5 84 -40.5 114s-60.167 45 -99.5 45c-47.333 0 -83.833 -17 -109.5 -51s-38.5 -80 -38.5 -138c0 -56.667 13.167 -102 39.5 -136s63.166 -51 110.499 -51c41.333 0 74.666 15.5 99.999 46.5s38 68.5 38 112.5z" />
    <glyph glyph-name="r" unicode="r" horiz-adv-x="314" 
d="M299 411c-16.667 -0.666992 -34 -5.33301 -52 -14c-28 -12.667 -49.5 -33.5 -64.5 -62.5s-22.5 -72.833 -22.5 -131.5v-203h-84v484h83l1 -105h2c13.333 32 32.333 58.833 57 80.5s52 33.167 82 34.5z" />
    <glyph glyph-name="s" unicode="s" horiz-adv-x="400" 
d="M181 210c-80 26.667 -119.999 73.334 -119.999 140.001c0 43.333 14.5 78.166 43.5 104.499s69.5 39.5 121.5 39.5c44 0 80 -7.33301 108 -22l-8 -64c-31.333 14.667 -63.666 22 -96.999 22c-24 0 -43.667 -6 -59 -18s-23 -28 -23 -48c0 -21.333 6.16699 -39 18.5 -53
s33.166 -26 62.499 -36c42.667 -15.333 74 -33.666 94 -54.999s30 -48 30 -80c0 -46.667 -17.333 -83.334 -52 -110.001s-78.334 -40 -131.001 -40c-51.333 0 -94.333 8.66699 -129 26l8 65c40 -18 79.333 -27 118 -27c28.667 0 52.5 6.33301 71.5 19s28.5 30 28.5 52
c0 20.667 -6.66699 37.5 -20 50.5s-35 24.5 -65 34.5z" />
    <glyph glyph-name="t" unicode="t" horiz-adv-x="349" 
d="M303 484v-63.999h-116v-280c0 -29.333 5.33301 -51 16 -65s28 -21 52 -21c20 0 38 3.33301 54 10l9 -61c-20 -8.66699 -49.667 -13 -89 -13c-40 0 -71 10.667 -93 32s-33 53.666 -33 96.999v301h-77v64h77v107h84v-107h116z" />
    <glyph glyph-name="u" unicode="u" horiz-adv-x="548" 
d="M388 80h-1.99902c-40.667 -60 -93.334 -90 -158.001 -90c-104.667 0 -157 59.667 -157 179v315h84v-289c0 -48.667 6.83301 -83.667 20.5 -105s39.167 -32 76.5 -32c38.667 0 71 14.5 97 43.5s39 67.833 39 116.5v266h84v-484h-81z" />
    <glyph glyph-name="v" unicode="v" horiz-adv-x="481" 
d="M393 484h82l-191 -484h-85l-190 484h90l89 -242c26 -70 44.667 -124.333 56 -163h3c19.333 60 38.333 114.333 57 163z" />
    <glyph glyph-name="w" unicode="w" horiz-adv-x="753" 
d="M659 484l84.001 0.000976562l-166 -484h-87l-70 231c-14.667 49.333 -28.334 104.333 -41.001 165h-3c-13.333 -64.667 -26.666 -119.334 -39.999 -164.001l-69 -232h-87l-167 484h91l74 -229c21.333 -70 37 -128 47 -174h3c10 54 24 111.333 42 172l69 231h85l68 -230
c20 -67.333 34.667 -125.333 44 -174h3c9.33301 46.667 24.666 104.667 45.999 174z" />
    <glyph glyph-name="x" unicode="x" horiz-adv-x="470" 
d="M447 484l-169 -232v-3l183 -249h-104l-126 192h-3l-126 -192h-96l179 245v3l-173 236h104l114 -178h3l118 178h96z" />
    <glyph glyph-name="y" unicode="y" horiz-adv-x="481" 
d="M202 -9l-193 493h90l89 -242c26 -70 44.667 -124.333 56 -163h3c19.333 60 38.333 114.333 57 163l89 242h82l-195 -494c-24 -59.333 -54 -104.166 -90 -134.499s-81.333 -50.833 -136 -61.5l-8 66c76 15.333 126 53.666 150 114.999z" />
    <glyph glyph-name="z" unicode="z" horiz-adv-x="419" 
d="M371 417l-249 -350v-3h263v-64h-354v67l249 350v3h-226v64h317v-67z" />
    <glyph glyph-name="braceleft" unicode="{" horiz-adv-x="344" 
d="M71 276v62.002c32 3.33301 52.5 11.166 61.5 23.499s11.167 37.166 6.5 74.499l-13 114c-6 56.667 6.33301 97.5 37 122.5s79.334 37.5 146.001 37.5v-62c-40.667 0 -71 -5.66699 -91 -17s-28.667 -30.666 -26 -57.999l15 -129c4.66699 -40 1.5 -69.667 -9.5 -89
s-32.167 -35 -63.5 -47v-2c31.333 -12 52.5 -27.667 63.5 -47s14.167 -49 9.5 -89l-15 -129c-2.66699 -27.333 6 -46.666 26 -57.999s50.333 -17 91 -17v-62c-66.667 0 -115.334 12.5 -146.001 37.5s-43 65.833 -37 122.5l13 114c4.66699 37.333 2.5 62.166 -6.5 74.499
s-29.5 20.166 -61.5 23.499z" />
    <glyph glyph-name="bar" unicode="|" horiz-adv-x="252" 
d="M160 -250h-68v1000h68v-1000z" />
    <glyph glyph-name="braceright" unicode="}" horiz-adv-x="344" 
d="M273 276c-32 -3.33301 -52.5 -11.168 -61.5 -23.501s-11.167 -37.166 -6.5 -74.499l13 -114c6 -56.667 -6.33301 -97.5 -37 -122.5s-79.334 -37.5 -146.001 -37.5v62c40.667 0 71 5.66699 91 17s28.667 30.666 26 57.999l-15 129c-4.66699 40 -1.5 69.667 9.5 89
s32.167 35 63.5 47v2c-31.333 12 -52.5 27.667 -63.5 47s-14.167 49 -9.5 89l15 129c2.66699 27.333 -6 46.666 -26 57.999s-50.333 17 -91 17v62c66.667 0 115.334 -12.5 146.001 -37.5s43 -65.833 37 -122.5l-13 -114c-4.66699 -37.333 -2.5 -62.166 6.5 -74.499
s29.5 -20.166 61.5 -23.499v-62z" />
    <glyph glyph-name="asciitilde" unicode="~" horiz-adv-x="644" 
d="M309 225c-76.667 32 -122.334 48.001 -137.001 48.001c-31.333 0 -47.666 -25 -48.999 -75h-62c0 47.333 10.167 82.666 30.5 105.999s48.833 35 85.5 35c16 0 33.667 -3.16699 53 -9.5s54.333 -20.5 105 -42.5c76.667 -32 122.334 -48 137.001 -48
c31.333 0 47.666 24.667 48.999 74h62c0 -93.333 -38.667 -140 -116 -140c-16 0 -33.667 3.16699 -53 9.5s-54.333 20.5 -105 42.5z" />
    <glyph glyph-name="yen" unicode="&#xa5;" 
d="M480 658l-146 -282.001h108v-46h-137v-67h137v-46h-137v-217h-84v217h-137v46h137v67h-137v46h106l-147 282h94l63 -135c16.667 -33.333 37.667 -83.666 63 -150.999h3c22 60 43 110.333 63 151l63 135h88z" />
    <glyph glyph-name="Adieresis" unicode="&#xc4;" horiz-adv-x="603" 
d="M492 0l-74 223h-237l-75 -223h-82l236 678h85l236 -678h-89zM200 287h198.999l-4 12c-45.333 135.333 -76.666 234.333 -93.999 297h-3c-20.667 -72.667 -52 -171.667 -94 -297zM390.999 720c-12.667 0 -23.667 4.66699 -33 14s-14 20.333 -14 33s4.66699 23.667 14 33
s20.333 14 33 14s23.667 -4.66699 33 -14s14 -20.333 14 -33s-4.66699 -23.667 -14 -33s-20.333 -14 -33 -14zM216.999 720c-12.667 0 -23.667 4.66699 -33 14s-14 20.333 -14 33s4.66699 23.667 14 33s20.333 14 33 14s23.667 -4.66699 33 -14s14 -20.333 14 -33
s-4.66699 -23.667 -14 -33s-20.333 -14 -33 -14z" />
    <glyph glyph-name="Aring" unicode="&#xc5;" horiz-adv-x="603" 
d="M492 0l-74 223h-237l-75 -223h-82l236 678h85l236 -678h-89zM200 287h198.999l-4 12c-45.333 135.333 -76.666 234.333 -93.999 297h-3c-20.667 -72.667 -52 -171.667 -94 -297zM301.999 855c22 0 40.833 -7.16699 56.5 -21.5s23.5 -32.5 23.5 -54.5
s-7.83301 -40.167 -23.5 -54.5s-34.5 -21.5 -56.5 -21.5s-40.833 7.16699 -56.5 21.5s-23.5 32.5 -23.5 54.5s7.83301 40.167 23.5 54.5s34.5 21.5 56.5 21.5zM301.999 741c10 0 18.667 3.5 26 10.5s11 16.167 11 27.5s-3.66699 20.5 -11 27.5s-16 10.5 -26 10.5
s-18.667 -3.5 -26 -10.5s-11 -16.167 -11 -27.5s3.66699 -20.5 11 -27.5s16 -10.5 26 -10.5z" />
    <glyph glyph-name="AE" unicode="&#xc6;" horiz-adv-x="785" 
d="M501 68h241v-68h-315l-32 223h-221l-101 -223h-85l316 678h410v-68h-297l34 -226h247v-68h-237zM339 598l-139 -311h185l-43 311h-3z" />
    <glyph glyph-name="Edieresis" unicode="&#xcb;" horiz-adv-x="491" 
d="M160 68h286v-68h-370v678h361v-68h-277v-226h243v-68h-243v-248zM360 720c-13.333 0 -24.5 4.66699 -33.5 14s-13.5 20.333 -13.5 33s4.5 23.667 13.5 33s20.167 14 33.5 14s24.5 -4.66699 33.5 -14s13.5 -20.333 13.5 -33s-4.5 -23.667 -13.5 -33s-20.167 -14 -33.5 -14
zM186 720c-13.333 0 -24.5 4.66699 -33.5 14s-13.5 20.333 -13.5 33s4.5 23.667 13.5 33s20.167 14 33.5 14s24.5 -4.66699 33.5 -14s13.5 -20.333 13.5 -33s-4.5 -23.667 -13.5 -33s-20.167 -14 -33.5 -14z" />
    <glyph glyph-name="Idieresis" unicode="&#xcf;" horiz-adv-x="220" 
d="M152 0v678h-84v-678h84zM197 720c-12.667 0 -23.667 4.66699 -33 14s-14 20.333 -14 33s4.66699 23.667 14 33s20.333 14 33 14s23.667 -4.66699 33 -14s14 -20.333 14 -33s-4.66699 -23.667 -14 -33s-20.333 -14 -33 -14zM23 720c-12.667 0 -23.667 4.66699 -33 14
s-14 20.333 -14 33s4.66699 23.667 14 33s20.333 14 33 14s23.667 -4.66699 33 -14s14 -20.333 14 -33s-4.66699 -23.667 -14 -33s-20.333 -14 -33 -14z" />
    <glyph glyph-name="Odieresis" unicode="&#xd6;" horiz-adv-x="732" 
d="M366 688c93.333 0 171.333 -31.667 234 -95s94 -148 94 -254s-31.333 -190.667 -94 -254s-140.667 -95 -234 -95s-171.333 31.667 -234 95s-94 148 -94 254s31.333 190.667 94 254s140.667 95 234 95zM366 620c-69.333 0 -126 -24.833 -170 -74.5s-66 -118.5 -66 -206.5
s22 -156.833 66 -206.5s100.667 -74.5 170 -74.5s126 24.833 170 74.5s66 118.5 66 206.5s-22 156.833 -66 206.5s-100.667 74.5 -170 74.5zM453 720c-12.667 0 -23.667 4.66699 -33 14s-14 20.333 -14 33s4.66699 23.667 14 33s20.333 14 33 14s23.667 -4.66699 33 -14
s14 -20.333 14 -33s-4.66699 -23.667 -14 -33s-20.333 -14 -33 -14zM279 720c-12.667 0 -23.667 4.66699 -33 14s-14 20.333 -14 33s4.66699 23.667 14 33s20.333 14 33 14s23.667 -4.66699 33 -14s14 -20.333 14 -33s-4.66699 -23.667 -14 -33s-20.333 -14 -33 -14z" />
    <glyph glyph-name="Oslash" unicode="&#xd8;" horiz-adv-x="732" 
d="M604 589c60 -65.333 90 -148.667 90 -250c0 -106 -31.333 -190.667 -94 -254s-140.667 -95 -234 -95c-73.333 0 -138 20.333 -194 61l-64 -80l-47 37l66 82c-59.333 64.667 -89 147.667 -89 249c0 106 31.333 190.667 94 254s140.667 95 234 95c72 0 136.333 -20 193 -60
l63 79l46 -38zM130 338.999c0 -74.667 16.333 -135.667 49 -183h2l331 413v2c-41.333 32.667 -90 49 -146 49c-69.333 0 -126 -24.833 -170 -74.5s-66 -118.5 -66 -206.5zM366 57.999c69.333 0 126 24.832 170 74.499s66 118.5 66 206.5
c0 74.667 -16.333 136.334 -49 185.001h-2l-330 -412v-3c40 -34 88.333 -51 145 -51z" />
    <glyph glyph-name="Udieresis" unicode="&#xdc;" horiz-adv-x="611" 
d="M544 233c0 -78 -22.167 -138 -66.5 -180s-101.166 -63 -170.499 -63c-68.667 0 -125.334 20 -170.001 60s-67 94.667 -67 164v464h84v-454c0 -54.667 13.667 -96 41 -124s65.333 -42 114 -42c104.667 0 157 55.333 157 166v454h78v-445zM399 720
c-12.667 0 -23.667 4.66699 -33 14s-14 20.333 -14 33s4.66699 23.667 14 33s20.333 14 33 14s23.667 -4.66699 33 -14s14 -20.333 14 -33s-4.66699 -23.667 -14 -33s-20.333 -14 -33 -14zM225 720c-12.667 0 -23.667 4.66699 -33 14s-14 20.333 -14 33
s4.66699 23.667 14 33s20.333 14 33 14s23.667 -4.66699 33 -14s14 -20.333 14 -33s-4.66699 -23.667 -14 -33s-20.333 -14 -33 -14z" />
    <glyph glyph-name="adieresis" unicode="&#xe4;" horiz-adv-x="499" 
d="M251 494c56.667 0 100.333 -14.167 131 -42.5s46 -69.5 46 -123.5v-328h-81l-3 75h-2c-13.333 -26 -32.5 -46.667 -57.5 -62s-53.5 -23 -85.5 -23c-41.333 0 -76.833 13.833 -106.5 41.5s-44.5 65.167 -44.5 112.5c0 52 20.167 92.833 60.5 122.5
s92.166 44.5 155.499 44.5c30.667 0 57.334 -2 80.001 -6v14c0 74 -35 111 -105 111c-38.667 0 -82 -9.33301 -130 -28l-8 64c48.667 18.667 98.667 28 150 28zM343.999 208v41.999c-26.667 4 -49 6 -67 6c-92.667 0 -139 -35.333 -139 -106
c0 -29.333 7.83301 -52.666 23.5 -69.999s36.5 -26 62.5 -26c36 0 65 13.833 87 41.5s33 65.167 33 112.5zM342.999 559.999c-12.667 0 -23.667 4.66699 -33 14s-14 20.333 -14 33s4.66699 23.667 14 33s20.333 14 33 14s23.667 -4.66699 33 -14s14 -20.333 14 -33
s-4.66699 -23.667 -14 -33s-20.333 -14 -33 -14zM168.999 559.999c-12.667 0 -23.667 4.66699 -33 14s-14 20.333 -14 33s4.66699 23.667 14 33s20.333 14 33 14s23.667 -4.66699 33 -14s14 -20.333 14 -33s-4.66699 -23.667 -14 -33s-20.333 -14 -33 -14z" />
    <glyph glyph-name="aring" unicode="&#xe5;" horiz-adv-x="494" 
d="M246 494c56.667 0 100.334 -14.167 131.001 -42.5s46 -69.5 46 -123.5v-328h-81l-3 75h-2c-13.333 -26 -32.5 -46.667 -57.5 -62s-53.5 -23 -85.5 -23c-41.333 0 -76.833 13.833 -106.5 41.5s-44.5 65.167 -44.5 112.5c0 52 20.167 92.833 60.5 122.5
s92.166 44.5 155.499 44.5c30 0 56.667 -2 80 -6v14c0 74 -35 111 -105 111c-38.667 0 -82 -9.33301 -130 -28l-8 64c48.667 18.667 98.667 28 150 28zM339 208v41.999c-26.667 4 -49 6 -67 6c-92.667 0 -139 -35.333 -139 -106c0 -29.333 7.83301 -52.666 23.5 -69.999
s36.5 -26 62.5 -26c36 0 65 13.833 87 41.5s33 65.167 33 112.5zM249 684.999c22 0 40.833 -7.16699 56.5 -21.5s23.5 -32.5 23.5 -54.5s-7.83301 -40.167 -23.5 -54.5s-34.5 -21.5 -56.5 -21.5s-40.833 7.16699 -56.5 21.5s-23.5 32.5 -23.5 54.5s7.83301 40.167 23.5 54.5
s34.5 21.5 56.5 21.5zM249 570.999c10 0 18.667 3.5 26 10.5s11 16.167 11 27.5s-3.66699 20.5 -11 27.5s-16 10.5 -26 10.5s-18.667 -3.5 -26 -10.5s-11 -16.167 -11 -27.5s3.66699 -20.5 11 -27.5s16 -10.5 26 -10.5z" />
    <glyph glyph-name="ae" unicode="&#xe6;" horiz-adv-x="796" 
d="M404 417h3c42.667 51.333 97.334 77 164.001 77c58.667 0 104.167 -21 136.5 -63s48.5 -95.333 48.5 -160c0 -14 -1 -30 -3 -48h-327c0.666992 -54 15.5 -95.667 44.5 -125s68.167 -44 117.5 -44c42.667 0 83.334 9.33301 122.001 28l8 -64
c-46 -18.667 -93.333 -28 -142 -28c-92.667 0 -159.334 34.667 -200.001 104h-2c-14.667 -30 -36.834 -54.833 -66.501 -74.5s-66.5 -29.5 -110.5 -29.5c-41.333 0 -77.333 13.833 -108 41.5s-46 65.167 -46 112.5c0 51.333 20.667 92 62 122s93.666 45 156.999 45
c30.667 0 57.334 -2 80.001 -6v14c0 74 -35 111 -105 111c-38.667 0 -82 -9.33301 -130 -28l-8 64c48.667 18.667 98.667 28 150 28c76 0 127.667 -25.667 155 -77zM342 208v41.999c-26.667 4 -49 6 -67 6c-47.333 0 -82.833 -9.33301 -106.5 -28s-35.5 -44.667 -35.5 -78
c0 -29.333 8.33301 -52.666 25 -69.999s38 -26 64 -26c36 0 65 13.833 87 41.5s33 65.167 33 112.5zM430 288.999l243 -0.00195312c0 38.667 -9.5 71.834 -28.5 99.501s-45.833 41.5 -80.5 41.5c-36 0 -65.833 -12.667 -89.5 -38s-38.5 -59.666 -44.5 -102.999z" />
    <glyph glyph-name="edieresis" unicode="&#xeb;" horiz-adv-x="508" 
d="M465 271c0 -14 -0.998047 -30 -2.99805 -48h-337c0.666992 -54 15.5 -95.667 44.5 -125s68.167 -44 117.5 -44s93.333 9.33301 132 28l8 -64c-46 -18.667 -96.667 -28 -152 -28c-70.667 0 -127.334 20.667 -170.001 62s-64 101.666 -64 180.999
c0 74.667 22.167 136.834 66.5 186.501s100.166 74.5 167.499 74.5c60 0 106.667 -21 140 -63s50 -95.333 50 -160zM129.002 289l253 0.000976562c0 41.333 -10 75.166 -30 101.499s-48 39.5 -84 39.5c-39.333 0 -70.833 -12.5 -94.5 -37.5s-38.5 -59.5 -44.5 -103.5z
M359.002 560.001c-12.667 0 -23.667 4.66699 -33 14s-14 20.333 -14 33s4.66699 23.667 14 33s20.333 14 33 14s23.667 -4.66699 33 -14s14 -20.333 14 -33s-4.66699 -23.667 -14 -33s-20.333 -14 -33 -14zM185.002 560.001c-12.667 0 -23.667 4.66699 -33 14
s-14 20.333 -14 33s4.66699 23.667 14 33s20.333 14 33 14s23.667 -4.66699 33 -14s14 -20.333 14 -33s-4.66699 -23.667 -14 -33s-20.333 -14 -33 -14z" />
    <glyph glyph-name="idieresis" unicode="&#xef;" horiz-adv-x="220" 
d="M68 0v484h84v-484h-84zM197 560c-12.667 0 -23.667 4.66699 -33 14s-14 20.333 -14 33s4.66699 23.667 14 33s20.333 14 33 14s23.667 -4.66699 33 -14s14 -20.333 14 -33s-4.66699 -23.667 -14 -33s-20.333 -14 -33 -14zM23 560c-12.667 0 -23.667 4.66699 -33 14
s-14 20.333 -14 33s4.66699 23.667 14 33s20.333 14 33 14s23.667 -4.66699 33 -14s14 -20.333 14 -33s-4.66699 -23.667 -14 -33s-20.333 -14 -33 -14z" />
    <glyph glyph-name="odieresis" unicode="&#xf6;" horiz-adv-x="548" 
d="M274 494c71.333 0 128 -23.833 170 -71.5s63 -107.834 63 -180.501s-21 -132.834 -63 -180.501s-98.667 -71.5 -170 -71.5s-128 23.833 -170 71.5s-63 107.834 -63 180.501s21 132.834 63 180.501s98.667 71.5 170 71.5zM274 54c48 0 84.167 17.833 108.5 53.5
s36.5 80.5 36.5 134.5s-12.167 98.833 -36.5 134.5s-60.5 53.5 -108.5 53.5s-84.167 -17.833 -108.5 -53.5s-36.5 -80.5 -36.5 -134.5s12.167 -98.833 36.5 -134.5s60.5 -53.5 108.5 -53.5zM360 560c-13.333 0 -24.5 4.66699 -33.5 14s-13.5 20.333 -13.5 33
s4.5 23.667 13.5 33s20.167 14 33.5 14s24.5 -4.66699 33.5 -14s13.5 -20.333 13.5 -33s-4.5 -23.667 -13.5 -33s-20.167 -14 -33.5 -14zM186 560c-13.333 0 -24.5 4.66699 -33.5 14s-13.5 20.333 -13.5 33s4.5 23.667 13.5 33s20.167 14 33.5 14s24.5 -4.66699 33.5 -14
s13.5 -20.333 13.5 -33s-4.5 -23.667 -13.5 -33s-20.167 -14 -33.5 -14z" />
    <glyph glyph-name="oslash" unicode="&#xf8;" horiz-adv-x="548" 
d="M434 433c48.667 -46.667 72.999 -110.333 72.999 -191c0 -72.667 -21 -132.834 -63 -180.501s-98.667 -71.5 -170 -71.5c-45.333 0 -84.666 9.66699 -117.999 29l-39 -60l-47 32l42 62c-47.333 47.333 -71 110.333 -71 189c0 72.667 21 132.834 63 180.501
s98.667 71.5 170 71.5c42 0 80.333 -9 115 -27l38 57l47 -31zM128.999 242.001c0 -48.667 8.66602 -90.333 25.999 -125h3l192 291v3c-19.333 12.667 -44.666 19 -75.999 19c-48 0 -84.167 -17.833 -108.5 -53.5s-36.5 -80.5 -36.5 -134.5zM273.998 54.002
c48 0 84.167 17.833 108.5 53.5s36.5 80.5 36.5 134.5c0 48 -9.33301 90.333 -28 127h-3l-194 -292v-2c26 -14 52.667 -21 80 -21z" />
    <glyph glyph-name="udieresis" unicode="&#xfc;" horiz-adv-x="548" 
d="M388 80h-1.99902c-40.667 -60 -93.334 -90 -158.001 -90c-104.667 0 -157 59.667 -157 179v315h84v-289c0 -48.667 6.83301 -83.667 20.5 -105s39.167 -32 76.5 -32c38.667 0 71 14.5 97 43.5s39 67.833 39 116.5v266h84v-484h-81zM364.001 560
c-13.333 0 -24.5 4.66699 -33.5 14s-13.5 20.333 -13.5 33s4.5 23.667 13.5 33s20.167 14 33.5 14s24.5 -4.66699 33.5 -14s13.5 -20.333 13.5 -33s-4.5 -23.667 -13.5 -33s-20.167 -14 -33.5 -14zM190.001 560c-13.333 0 -24.5 4.66699 -33.5 14s-13.5 20.333 -13.5 33
s4.5 23.667 13.5 33s20.167 14 33.5 14s24.5 -4.66699 33.5 -14s13.5 -20.333 13.5 -33s-4.5 -23.667 -13.5 -33s-20.167 -14 -33.5 -14z" />
    <glyph glyph-name="ydieresis" unicode="&#xff;" horiz-adv-x="481" 
d="M202 -9l-193 493h90l89 -242c26 -70 44.667 -124.333 56 -163h3c19.333 60 38.333 114.333 57 163l89 242h82l-195 -494c-24 -59.333 -54 -104.166 -90 -134.499s-81.333 -50.833 -136 -61.5l-8 66c76 15.333 126 53.666 150 114.999zM338 560
c-13.333 0 -24.5 4.66699 -33.5 14s-13.5 20.333 -13.5 33s4.5 23.667 13.5 33s20.167 14 33.5 14s24.5 -4.66699 33.5 -14s13.5 -20.333 13.5 -33s-4.5 -23.667 -13.5 -33s-20.167 -14 -33.5 -14zM164 560c-13.333 0 -24.5 4.66699 -33.5 14s-13.5 20.333 -13.5 33
s4.5 23.667 13.5 33s20.167 14 33.5 14s24.5 -4.66699 33.5 -14s13.5 -20.333 13.5 -33s-4.5 -23.667 -13.5 -33s-20.167 -14 -33.5 -14z" />
    <glyph glyph-name="Ydieresis" unicode="&#x178;" horiz-adv-x="532" 
d="M441 678h90l-219 -383v-295h-84v288l-222 390h96l167 -313h3zM360 720c-13.333 0 -24.5 4.66699 -33.5 14s-13.5 20.333 -13.5 33s4.5 23.667 13.5 33s20.167 14 33.5 14s24.5 -4.66699 33.5 -14s13.5 -20.333 13.5 -33s-4.5 -23.667 -13.5 -33s-20.167 -14 -33.5 -14z
M186 720c-13.333 0 -24.5 4.66699 -33.5 14s-13.5 20.333 -13.5 33s4.5 23.667 13.5 33s20.167 14 33.5 14s24.5 -4.66699 33.5 -14s13.5 -20.333 13.5 -33s-4.5 -23.667 -13.5 -33s-20.167 -14 -33.5 -14z" />
    <glyph glyph-name="endash" unicode="&#x2013;" horiz-adv-x="500" 
d="M432 287v-62h-364v62h364z" />
    <glyph glyph-name="emdash" unicode="&#x2014;" horiz-adv-x="1000" 
d="M932 287v-62h-864v62h864z" />
    <glyph glyph-name="quoteleft" unicode="&#x2018;" horiz-adv-x="273" 
d="M159 478c-4.66699 -18 -18.334 -27 -41.001 -27h-64c26.667 79.333 57.334 159.333 92.001 240l79 13c-30.667 -96.667 -52.667 -172 -66 -226z" />
    <glyph glyph-name="quoteright" unicode="&#x2019;" horiz-adv-x="273" 
d="M114 677c4.66699 18 18.333 27 41 27h64c-28 -84.667 -58.667 -164.667 -92 -240l-79 -13c24.667 78 46.667 153.333 66 226z" />
    <glyph glyph-name="quotedblleft" unicode="&#x201c;" horiz-adv-x="434" 
d="M320 478c-4.66699 -18 -18.334 -27 -41.001 -27h-64c26.667 79.333 57.334 159.333 92.001 240l79 13c-30.667 -96.667 -52.667 -172 -66 -226zM159 478c-4.66699 -18 -18.334 -27 -41.001 -27h-64c26.667 79.333 57.334 159.333 92.001 240l79 13
c-30.667 -96.667 -52.667 -172 -66 -226z" />
    <glyph glyph-name="quotedblright" unicode="&#x201d;" horiz-adv-x="442" 
d="M114 677c4.66699 18 18.333 27 41 27h64c-28 -84.667 -58.667 -164.667 -92 -240l-79 -13c24.667 78 46.667 153.333 66 226zM282.999 677c4.66699 18 18.333 27 41 27h64c-28 -84.667 -58.667 -164.667 -92 -240l-79 -13c24.667 78 46.667 153.333 66 226z" />
    <glyph glyph-name=".null" horiz-adv-x="0" 
 />
    <glyph glyph-name="nonmarkingreturn" horiz-adv-x="333" 
 />
    </font>
</defs>
</svg>
